Coordinates
version=1
nRows=15
nColumns=34
inDegrees=yes

Units are S.I. units (second, meters, Newtons, ...)
If the header above contains a line with 'inDegrees', this indicates whether rotational values are in degrees (yes) or radians (no).

endheader
time	pelvis_tilt	pelvis_list	pelvis_rotation	pelvis_tx	pelvis_ty	pelvis_tz	hip_flexion_r	hip_adduction_r	hip_rotation_r	knee_angle_r	ankle_angle_r	subtalar_angle_r	mtp_angle_r	hip_flexion_l	hip_adduction_l	hip_rotation_l	knee_angle_l	ankle_angle_l	subtalar_angle_l	mtp_angle_l	lumbar_extension	lumbar_bending	lumbar_rotation	arm_flex_r	arm_add_r	arm_rot_r	elbow_flex_r	pro_sup_r	arm_flex_l	arm_add_l	arm_rot_l	elbow_flex_l	pro_sup_l
      2.98333330	      0.94855555	     -2.95285464	    -27.58241281	      1.21477607	      0.99933915	      0.21789097	     20.92076726	     -3.70457838	     -6.45032896	     39.81882888	      7.52670674	      0.01642843	      0.00000000	     10.07990777	      2.37862478	     -1.88518678	     10.44608959	      5.43126837	     -6.94292249	      0.00000000	    -11.75206291	     -2.31945701	      4.25910247	     15.98918791	    -15.28872039	     22.92252680	     24.33360650	    119.74817918	      4.33240106	    -17.31226708	      1.77552883	     22.51542920	    119.74817918
      3.00000000	      0.99162731	     -3.03865947	    -27.77186636	      1.21498149	      0.99959432	      0.21676747	     21.46756089	     -4.15109231	     -7.09889169	     41.02491817	      6.39000088	     -0.47150580	      0.00000000	      9.84147158	      2.39278099	     -2.02932143	     10.14093214	      5.39191327	     -6.91005217	      0.00000000	    -12.05940522	     -2.03172899	      4.42642988	     15.59989979	    -15.49359648	     22.85606501	     24.04993554	    119.74817918	      4.63323317	    -17.65738544	      1.79926952	     22.84714748	    119.74817918
      3.01666670	      0.89683782	     -2.70914301	    -27.97444823	      1.21505478	      0.99943522	      0.21620412	     22.30093078	     -4.50435785	     -6.79537579	     41.98740055	      4.85111473	     -2.56021586	      0.00000000	      9.90638449	      2.70247469	     -2.26948516	      9.78092975	      5.12081227	     -6.82928143	      0.00000000	    -11.93050078	     -2.15448425	      4.52834666	     14.92468849	    -15.40007477	     22.22872105	     23.71261008	    119.74817918	      4.62947431	    -18.26048264	      2.10190511	     23.60474790	    119.74817918
      3.03333330	      0.91052815	     -2.67036913	    -28.15739050	      1.21550872	      0.99970091	      0.21569111	     22.51365960	     -4.87558198	     -7.20391027	     42.41152614	      4.14141320	     -3.09674159	      0.00000000	      9.76169273	      2.80098262	     -2.37680997	      9.57827947	      5.15176806	     -6.81281959	      0.00000000	    -11.98925991	     -1.98100013	      4.79713931	     14.27231156	    -15.50241628	     22.09667429	     23.34678482	    119.74817918	      4.85509874	    -18.70481482	      2.06016365	     23.99267333	    119.74817918
      3.05000000	      0.93346314	     -2.59234148	    -28.20343127	      1.21624637	      0.99970161	      0.21535811	     22.53655619	     -5.14192955	     -7.30573047	     42.49329242	      3.82285065	     -3.64825197	      0.00000000	      9.67986083	      2.93612668	     -2.52578787	      9.45574809	      5.11834242	     -6.80883135	      0.00000000	    -11.95652356	     -1.81159199	      4.89092290	     13.52855997	    -15.46356338	     21.98440541	     23.00760913	    119.74817918	      4.97124338	    -19.16650118	      2.00372172	     24.36785531	    119.74817918
      3.06666670	      0.95075734	     -2.30127529	    -28.51750892	      1.21595646	      0.99943290	      0.21509272	     22.64175898	     -5.29766731	     -6.86751597	     42.14725578	      2.85003265	     -5.65414832	      0.00000000	      9.60837022	      3.22890035	     -2.75090058	      9.00987395	      4.94469291	     -6.48859428	      0.00000000	    -11.98261048	     -1.87966623	      5.07477774	     13.06446537	    -15.30844255	     20.87492307	     22.67165662	    119.72147413	      4.74654143	    -19.81014718	      2.02127359	     25.80610391	    119.74817918
      3.08333330	      0.89498563	     -2.26399710	    -28.78997455	      1.21616099	      0.99927206	      0.21512617	     22.40349981	     -5.28919999	     -6.77952388	     41.42580623	      2.72053122	     -6.38803314	      0.00000000	      9.59353800	      3.21759750	     -3.10764268	      8.87381517	      4.97891312	     -6.46568147	      0.00000000	    -11.88471710	     -1.64110156	      5.57261855	     12.30930752	    -15.27646726	     20.09366363	     22.23065379	    119.73409654	      4.93777312	    -20.16646726	      1.82169673	     26.55198314	    119.74817918
      3.10000000	      1.00817835	     -2.29271780	    -29.08569326	      1.21639518	      0.99957740	      0.21542454	     21.83303746	     -5.13259822	     -6.28348386	     40.37824557	      2.13469692	     -7.35685961	      0.00000000	      9.27006568	      3.21236525	     -3.50067958	      8.59094664	      5.03793184	     -6.11324284	      0.00000000	    -11.93970622	     -1.43835878	      5.92784212	     11.51977769	    -15.03821829	     18.29358022	     21.95991498	    119.69220113	      4.81372055	    -20.60741147	      1.51439735	     27.79307692	    119.74817918
      3.11666670	      0.94574387	     -2.11343584	    -29.15709812	      1.21648911	      0.99920388	      0.21503818	     21.50259563	     -5.38068569	     -6.43720157	     39.28694803	      2.26437358	     -7.54365183	      0.00000000	      9.36610677	      3.36911671	     -3.61657982	      8.49859236	      4.95894589	     -6.05818114	      0.00000000	    -11.68542820	     -1.29590142	      6.30530423	     10.72239916	    -15.09234228	     18.08417107	     21.51501995	    119.70464332	      5.19410283	    -20.85843128	      1.37669240	     28.29406671	    119.74817918
      3.13333330	      1.22381844	     -2.39213342	    -29.21314177	      1.21634275	      0.99988594	      0.21513030	     20.31584944	     -5.12914751	     -6.26507178	     37.53500014	      1.97618345	     -8.28051621	      0.00000000	      8.75587996	      3.22472594	     -3.92276248	      8.15035769	      5.09066564	     -5.61095060	      0.00000000	    -12.07905589	     -0.92412852	      6.70113236	      9.95152917	    -14.78458975	     15.48608024	     21.23313106	    119.62414482	      5.30775333	    -21.08656705	      0.98739959	     29.69316661	    119.74817918
      3.15000000	      1.16626011	     -2.45052938	    -29.27844713	      1.21611882	      0.99986183	      0.21513619	     19.59453539	     -5.00291998	     -6.28706724	     35.73826278	      1.84490526	     -8.19449881	      0.00000000	      8.66001196	      3.12763953	     -4.01327668	      7.89580219	      5.05711777	     -5.40781475	      0.00000000	    -11.92293430	     -0.55068648	      7.13680203	      9.23194589	    -14.67223258	     14.31293477	     20.77455304	    119.74817918	      5.49989793	    -21.26603311	      1.03111372	     30.58551186	    119.74817918
      3.16666670	      1.09266961	     -2.19243947	    -29.15912417	      1.21576290	      0.99942352	      0.21482424	     19.11790280	     -5.17835063	     -6.22562759	     34.03973153	      1.87042582	     -8.09637391	      0.00000000	      8.84762284	      3.34559470	     -4.07171401	      7.74409854	      4.86804522	     -5.31506230	      0.00000000	    -11.56256193	     -0.49156891	      7.43707949	      8.48096266	    -14.64330504	     14.17722750	     20.27728360	    119.74817918	      5.88815567	    -21.39681332	      0.99441664	     31.15516671	    119.74817918
      3.18333330	      1.26411041	     -2.63081457	    -29.07494050	      1.21531941	      1.00028766	      0.21503378	     17.55446997	     -4.65314662	     -6.16403943	     31.50701480	      1.61144794	     -7.96901654	      0.00000000	      8.27572198	      3.00869237	     -4.07323292	      7.37271953	      4.88698184	     -5.13987415	      0.00000000	    -11.85368060	      0.12125254	      7.71010492	      8.09918746	    -14.46274116	     13.02371164	     19.51838800	    119.72900587	      6.03570594	    -21.53758003	      1.24710579	     32.15825755	    119.74817918
      3.20000000	      1.43687280	     -2.77218615	    -28.83940110	      1.21500615	      1.00072562	      0.21510851	     16.13355751	     -4.40649842	     -6.00394927	     29.07074061	      1.46647914	     -7.92884428	      0.00000000	      7.93481952	      2.97662737	     -3.99631764	      7.13171959	      4.85664872	     -4.86270357	      0.00000000	    -11.92636235	      0.42392515	      7.91811847	      7.43204403	    -14.31618576	     11.90770229	     19.06286072	    119.73773427	      6.48204600	    -21.55625354	      1.35873413	     32.59499312	    119.74817918
      3.21666670	      1.37032521	     -2.31613668	    -28.71369477	      1.21410151	      0.99981391	      0.21486376	     15.61203625	     -4.66957047	     -5.75612697	     27.21964144	      1.46953463	     -7.67107060	      0.00000000	      8.29013930	      3.39853386	     -4.03433023	      7.07143708	      4.83264804	     -4.85947357	      0.00000000	    -11.50256975	      0.23091749	      8.07226155	      6.94482737	    -14.23434571	     11.84073439	     18.77066295	    119.74817918	      6.94002377	    -21.57023325	      1.32845034	     33.00621200	    119.74817918
